<svg width="24" height="24" viewBox="0 0 24 24" fill="none" xmlns="http://www.w3.org/2000/svg">
<path d="M14.8506 12.0334L12.2256 10.5167C12.0923 10.4417 11.9339 10.4417 11.8089 10.5167L9.18392 12.0334L8.97559 12.2V15.425L9.01725 15.6917L11.8089 17.3084C11.8756 17.3417 11.9423 17.3584 12.0173 17.3584C12.0923 17.3584 12.1589 17.3417 12.2256 17.3L14.8506 15.7834L15.0589 15.6167V12.3917C15.0589 12.2417 14.9756 12.1 14.8506 12.0334ZM14.3923 15.2834L12.0173 16.6584L9.64225 15.2834V12.5417L12.0173 11.1667L14.3923 12.5417V15.2834Z" fill="#161618" style="fill:#161618;fill:color(display-p3 0.0863 0.0863 0.0941);fill-opacity:1;"/>
<path d="M21.8333 10.0417C21.8333 6.70833 17.3833 4 11.9167 4C6.45 4 2 6.70833 2 10.0417C2 12.2167 3.91667 14.2167 7 15.2833V16.375C7 16.6417 7.14167 16.8917 7.375 17.025L11.6417 19.4917C11.7583 19.5583 11.8833 19.5917 12.0167 19.5917C12.15 19.5917 12.275 19.5583 12.3917 19.4917L16.6583 17.025C16.8917 16.8917 17.0333 16.6417 17.0333 16.375V15.2167C19.9917 14.1333 21.825 12.1583 21.825 10.0417H21.8333ZM17.0167 11.2667C16.9667 11.075 16.8417 10.9 16.6667 10.8L12.4 8.33333C12.1667 8.2 11.8833 8.2 11.65 8.33333L7.38333 10.8C7.18333 10.9167 7.05833 11.1167 7.025 11.3333C5.41667 10.6167 4.45833 9.59167 4.45833 8.54167C4.45833 6.51667 7.89167 4.80833 11.95 4.80833C16.0083 4.80833 19.4417 6.51667 19.4417 8.54167C19.4417 9.575 18.5583 10.55 17.025 11.275L17.0167 11.2667ZM2.66667 10.0417C2.66667 8.91667 3.25833 7.88333 4.275 7.01667C3.95833 7.49167 3.78333 8 3.78333 8.53333C3.78333 9.94167 4.95833 11.2167 7 12.05V14.575C4.325 13.5833 2.66667 11.875 2.66667 10.0417ZM12.0583 18.9167H11.975L7.66667 16.3833V11.45C7.66667 11.45 7.68333 11.3917 7.70833 11.375L11.975 8.90833C11.975 8.90833 12 8.9 12.0167 8.9C12.0333 8.9 12.0417 8.9 12.0583 8.90833L16.325 11.375L16.3667 16.375L12.0583 18.9083V18.9167ZM17.0333 14.5V11.9917C18.975 11.15 20.0917 9.90833 20.0917 8.54167C20.0917 8.05 19.9417 7.58333 19.6833 7.14167C20.6167 7.98333 21.1583 8.975 21.1583 10.05C21.1583 11.8333 19.5833 13.5083 17.0333 14.5083V14.5Z" fill="#161618" style="fill:#161618;fill:color(display-p3 0.0863 0.0863 0.0941);fill-opacity:1;"/>
</svg>
