<svg width="24" height="24" viewBox="0 0 24 24" fill="none" xmlns="http://www.w3.org/2000/svg">
<path d="M11.625 4C8.52333 4 6 7.79917 6 12.4658C6 17.1325 8.52333 20.9317 11.625 20.9317C14.7267 20.9317 17.25 17.1325 17.25 12.4658C17.25 7.79917 14.7267 4 11.625 4ZM14.4092 9.185L15.775 8.66667C16.2066 9.88653 16.4237 11.1719 16.4167 12.4658C16.4249 13.7859 16.1992 15.097 15.75 16.3383L14.4125 15.7625L14.4092 9.185ZM15.4583 7.89667L14.1025 8.41083L12.875 7.16667L13.5983 5.5175C14.4077 6.1424 15.0472 6.96045 15.4583 7.89667ZM12.2083 17.2575H11.0492L9.67417 15.8658V9.06833L11.0492 7.67417H12.2083L13.58 9.06833V15.8658L12.2083 17.2575ZM12.875 5.1025L12.1058 6.84083H11.1467L10.3825 5.1025C10.7728 4.92511 11.1966 4.83332 11.6254 4.83332C12.0542 4.83332 12.478 4.92511 12.8683 5.1025H12.875ZM9.66083 5.51917L10.3858 7.16917L9.16167 8.40083L7.82833 7.8175C8.23879 6.91227 8.86587 6.12206 9.65417 5.51667L9.66083 5.51917ZM7.50583 8.58667L8.83917 9.17V15.7533L7.48083 16.2858C7.04497 15.0597 6.82586 13.7671 6.83333 12.4658C6.82599 11.1432 7.05369 9.82969 7.50583 8.58667V8.58667ZM7.805 17.0542L9.15417 16.525L10.375 17.7625L9.6325 19.3992C8.83994 18.7795 8.21228 17.9741 7.805 17.0542ZM10.3575 19.8183L11.1425 18.0908H12.11L12.8942 19.8183C12.4968 20.0028 12.0639 20.0983 11.6258 20.0983C11.1877 20.0983 10.7549 20.0028 10.3575 19.8183V19.8183ZM13.6183 19.4017L12.875 17.7625L14.0883 16.5317L15.4217 17.105C15.015 18.0041 14.3962 18.7911 13.6183 19.3983V19.4017Z" fill="#161618" style="fill:#161618;fill:color(display-p3 0.0863 0.0863 0.0941);fill-opacity:1;"/>
</svg>
