<?xml version="1.0" encoding="utf-8"?>
<!-- Generator: Adobe Illustrator 26.3.1, SVG Export Plug-In . SVG Version: 6.00 Build 0)  -->
<svg version="1.1" id="Icons" xmlns="http://www.w3.org/2000/svg" xmlns:xlink="http://www.w3.org/1999/xlink" x="0px" y="0px"
	 viewBox="0 0 24 24" style="enable-background:new 0 0 24 24;" xml:space="preserve">
<style type="text/css">
	.st0{fill:#080812;}
</style>
<g>
	<polygon class="st0" points="12.1,8.6 12.1,8.6 12.1,8.6 	"/>
	<path class="st0" d="M12,3L12,3C5.4,3,0.1,6.3,0.1,10.3c0,2.5,2,4.7,5.4,6.1l0.4,0.1c0.7,2.8,3.2,5,6.2,5c3,0,5.6-2.2,6.2-5
		l0.4-0.1c3.2-1.3,5.1-3.6,5.1-6C23.9,6.3,18.6,3,12,3z M5.7,15c0,0.2,0,0.4,0,0.6c-3-1.2-4.8-3.2-4.8-5.3c0-1.3,0.7-2.6,1.9-3.6
		C2.5,7.2,2.2,7.8,2.2,8.5c0,1.5,1.2,2.9,3.2,3.9l0.7,0.3C5.9,13.4,5.7,14.2,5.7,15z M12.1,20.6c-3.1,0-5.6-2.5-5.6-5.6
		S9,9.4,12.1,9.4c3.1,0,5.6,2.5,5.6,5.6S15.2,20.6,12.1,20.6z M12.1,8.6c-2.4,0-4.5,1.4-5.6,3.3l-0.7-0.3C4,10.8,3,9.7,3,8.5
		C3,6,7.2,4,12,4s9,2,9,4.5c0,1.2-1,2.3-2.6,3.1L17.7,12C16.6,10,14.5,8.6,12.1,8.6z M18.5,15.5L18.5,15.5L18.5,15.5
		c0-0.2,0-0.3,0-0.5c0-0.8-0.2-1.6-0.4-2.3l0.7-0.4c2-1,3-2.4,3-3.9c0-0.6-0.2-1.1-0.5-1.7c1.1,1,1.8,2.2,1.8,3.5
		C23.1,12.3,21.4,14.3,18.5,15.5z"/>
	<path class="st0" d="M12.1,11.1c-2.1,0-3.9,1.8-3.9,3.9s1.8,3.9,3.9,3.9c2.2,0,3.9-1.8,3.9-3.9S14.2,11.1,12.1,11.1z M12.1,18.1
		C10.4,18.1,9,16.7,9,15s1.4-3.1,3.1-3.1c1.7,0,3.1,1.4,3.1,3.1S13.8,18.1,12.1,18.1z"/>
</g>
</svg>
