<svg width="24" height="24" viewBox="0 0 24 24" fill="none" xmlns="http://www.w3.org/2000/svg">
<path fill-rule="evenodd" clip-rule="evenodd" d="M20.7201 10.27C20.9601 10.16 21.2201 10.1 21.5001 10.1C22.5501 10.1 23.4001 10.95 23.4001 12C23.4001 13.05 22.5501 13.9 21.5001 13.9C21.2201 13.9 20.9601 13.84 20.7201 13.73C20.6801 14.74 19.8501 15.56 18.8301 15.56C18.1201 15.56 17.5001 15.16 17.1801 14.57C16.2401 16.47 14.2701 17.79 12.0001 17.79C9.7301 17.79 7.7701 16.48 6.8201 14.57C6.5001 15.16 5.8801 15.56 5.1701 15.56C4.1501 15.56 3.3201 14.74 3.2801 13.73C3.0401 13.84 2.7801 13.9 2.5001 13.9C1.4501 13.9 0.600098 13.05 0.600098 12C0.600098 10.95 1.4501 10.1 2.5001 10.1C2.7801 10.1 3.0401 10.16 3.2801 10.27C3.3201 9.25996 4.1501 8.43996 5.1701 8.43996C5.8801 8.43996 6.5001 8.83996 6.8201 9.42996C7.7601 7.52996 9.7301 6.20996 12.0001 6.20996C14.2701 6.20996 16.2301 7.51996 17.1801 9.42996C17.5001 8.83996 18.1201 8.43996 18.8301 8.43996C19.8501 8.43996 20.6801 9.25996 20.7201 10.27ZM1.4001 12C1.4001 12.61 1.9001 13.1 2.5001 13.1C3.1101 13.1 3.6001 12.61 3.6001 12C3.6001 11.39 3.1101 10.9 2.5001 10.9C1.8901 10.9 1.4001 11.39 1.4001 12ZM4.0701 13.66C4.0701 14.27 4.5701 14.76 5.1701 14.76C5.7801 14.76 6.2701 14.27 6.2701 13.66C6.2701 13.05 5.7801 12.56 5.1701 12.56C4.5601 12.56 4.0701 13.05 4.0701 13.66ZM6.0701 12.01C6.1201 12.04 6.2201 12.09 6.2201 12.09V12.01V11.93C6.1951 11.945 6.1701 11.9575 6.1451 11.97C6.1201 11.9825 6.0951 11.995 6.0701 12.01ZM4.0701 10.34C4.0701 10.95 4.5701 11.44 5.1701 11.44C5.7801 11.44 6.2701 10.95 6.2701 10.34C6.2701 9.72996 5.7801 9.23996 5.1701 9.23996C4.5601 9.23996 4.0701 9.72996 4.0701 10.34ZM7.1201 12.01C7.1201 14.71 9.3101 16.9 12.0101 16.9C14.7101 16.9 16.9001 14.71 16.9001 12.01C16.9001 9.30996 14.7101 7.11996 12.0101 7.11996C9.3101 7.11996 7.1201 9.30996 7.1201 12.01ZM17.7501 13.66C17.7501 14.27 18.2501 14.76 18.8501 14.76C19.4601 14.76 19.9501 14.27 19.9501 13.66C19.9501 13.05 19.4601 12.56 18.8501 12.56C18.2401 12.56 17.7501 13.05 17.7501 13.66ZM17.9501 12C17.9001 11.97 17.8001 11.92 17.8001 11.92V12V12.08C17.8251 12.065 17.8501 12.0525 17.8751 12.04C17.9001 12.0275 17.9251 12.015 17.9501 12ZM17.7501 10.34C17.7501 10.95 18.2501 11.44 18.8501 11.44C19.4601 11.44 19.9501 10.95 19.9501 10.34C19.9501 9.72996 19.4601 9.23996 18.8501 9.23996C18.2401 9.23996 17.7501 9.72996 17.7501 10.34ZM20.4201 12C20.4201 12.61 20.9201 13.1 21.5201 13.1C22.1301 13.1 22.6201 12.61 22.6201 12C22.6201 11.39 22.1301 10.9 21.5201 10.9C20.9101 10.9 20.4201 11.39 20.4201 12ZM8.71997 10.64L10.64 8.71997H13.36L15.28 10.64V13.36L13.36 15.28H10.64L8.71997 13.36V10.64ZM12.99 14.37L14.38 12.98V11.01L12.99 9.61997H11.02L9.62997 11.01V12.98L11.02 14.37H12.99Z" fill="#080812"/>
</svg>
