<svg width="24" height="24" viewBox="0 0 24 24" fill="none" xmlns="http://www.w3.org/2000/svg">
<path d="M21.9501 10.39C21.9501 8.98005 21.1401 7.68005 19.7801 6.66005C18.3601 5.25005 15.49 4.30005 12.11 4.30005C9.36005 4.30005 6.94005 4.93005 5.37005 5.92005C3.34005 7.02005 2.05005 8.62005 2.05005 10.39C2.05005 10.96 2.19005 11.51 2.44005 12.04C2.19005 12.57 2.05005 13.13 2.05005 13.7C2.05005 17.07 6.42005 19.71 12 19.71C17.58 19.71 21.9501 17.07 21.9501 13.7C21.9501 13.13 21.81 12.57 21.56 12.04C21.81 11.52 21.9501 10.97 21.9501 10.39ZM19.85 8.70005C19.85 9.05005 19.73 9.40005 19.5 9.72005C17.62 8.42005 14.9 7.67005 12 7.67005C9.71005 7.67005 7.50005 8.14005 5.79005 8.98005C5.72005 9.01005 5.64005 9.05005 5.59005 9.08005C5.26005 9.24005 4.96005 9.43005 4.67005 9.61005C4.49005 9.32005 4.38005 9.01005 4.38005 8.69005C4.38005 7.86005 5.06005 7.09005 6.16005 6.48005C6.18005 6.48005 6.19005 6.46005 6.21005 6.45005C6.23005 6.45005 6.24005 6.43005 6.26005 6.43005C7.82005 5.70005 9.83005 5.26005 12 5.26005C14.86 5.26005 17.41 6.01005 19.07 7.19005C19.56 7.65005 19.85 8.16005 19.85 8.69005V8.70005ZM18.8601 10.39C17.5201 11.47 14.97 12.21 12.11 12.21C9.25005 12.21 6.57005 11.42 5.26005 10.3C5.49005 10.15 5.74005 10.01 6.01005 9.88005C6.05005 9.86005 6.09005 9.83005 6.16005 9.80005C7.78005 9.01005 9.85005 8.57005 12 8.57005C14.66 8.57005 17.1301 9.23005 18.8601 10.38V10.39ZM3.48005 8.69005C3.48005 11.17 7.27005 13.11 12.12 13.11C16.97 13.11 20.4 11.34 20.73 9.03005C20.94 9.46005 21.06 9.92005 21.06 10.39C21.06 13.21 17 15.5 12.01 15.5C7.02005 15.5 2.95005 13.21 2.95005 10.39C2.95005 9.79005 3.14005 9.22005 3.47005 8.69005H3.48005ZM21.06 13.69C21.06 16.51 17 18.8 12.01 18.8C7.02005 18.8 2.95005 16.51 2.95005 13.69C2.95005 13.45 2.98005 13.22 3.04005 12.98C4.65005 15 8.05005 16.39 12 16.39C15.95 16.39 19.35 14.99 20.96 12.98C21.02 13.21 21.05 13.45 21.05 13.69H21.06Z" fill="#080812"/>
</svg>
