<svg width="24" height="24" viewBox="0 0 24 24" fill="none" xmlns="http://www.w3.org/2000/svg">
<path d="M17.4825 4.53238C17.367 4.23948 17.1432 4.00225 16.8575 3.86988C15.2079 3.21846 13.438 2.92723 11.6667 3.01572C9.89517 2.92648 8.12513 3.21803 6.47583 3.87072C6.19131 4.00387 5.96794 4.24006 5.85083 4.53155C5.53333 5.31072 5 7.26655 5 11.6057C5 15.9449 5.53333 17.8957 5.85083 18.6774C5.96563 18.9723 6.19024 19.2112 6.4775 19.344C8.12693 19.9939 9.89605 20.2842 11.6667 20.1957C13.4369 20.2816 15.2051 19.9901 16.8542 19.3407C17.1414 19.2071 17.3665 18.9685 17.4833 18.674C17.8008 17.8974 18.3333 15.939 18.3333 11.6057C18.3333 7.27238 17.8 5.31238 17.4825 4.53238ZM17.5 11.4249L15.6475 8.87655V7.10572L16.8625 5.28488C17.3562 7.29251 17.5707 9.35864 17.5 11.4249V11.4249ZM8.51917 15.7724V7.43905H14.8142V15.7724H8.51917ZM13.0858 16.6057L11.6667 18.429L10.2358 16.6057H13.0858ZM10.3533 6.60572L11.6667 4.81322L12.9692 6.60572H10.3533ZM14.98 6.60572H14L12.005 3.86072H12.0008C13.4803 3.82345 14.9538 4.0608 16.3467 4.56072L14.98 6.60572ZM11.3333 3.85572L9.32 6.60572H8.35333L6.9875 4.55738C8.38023 4.05665 9.85379 3.81874 11.3333 3.85572V3.85572ZM7.68583 13.3557L6.50833 11.8557L7.68583 10.2482V13.3557ZM8.3525 16.6057H9.17583L11.3333 19.3557C9.85397 19.3921 8.38063 19.1547 6.9875 18.6557L8.3525 16.6057ZM14.14 16.6057H14.9792L16.3442 18.6524C14.9516 19.1515 13.479 19.3899 12 19.3557L14.14 16.6057ZM15.6467 10.294L16.7817 11.8557L15.6475 13.3132L15.6467 10.294ZM6.47083 5.28488L7.68583 7.10572V8.83655L5.83333 11.3632C5.76629 9.31746 5.9808 7.27221 6.47083 5.28488V5.28488ZM5.83917 12.3557L7.68583 14.7057V16.1057L6.47167 17.9257C6.01475 16.1053 5.80205 14.2322 5.83917 12.3557V12.3557ZM16.8633 17.929L15.6475 16.1057V14.669L17.4942 12.2965C17.5354 14.1932 17.3232 16.0869 16.8633 17.9274V17.929Z" fill="#161618" style="fill:#161618;fill:color(display-p3 0.0863 0.0863 0.0941);fill-opacity:1;"/>
</svg>
