<svg width="24" height="24" viewBox="0 0 24 24" fill="none" xmlns="http://www.w3.org/2000/svg">
<path d="M12 1.5C9.9233 1.5 7.89323 2.11581 6.16652 3.26957C4.4398 4.42332 3.09399 6.0632 2.29927 7.98182C1.50455 9.90045 1.29661 12.0116 1.70176 14.0484C2.1069 16.0852 3.10693 17.9562 4.57538 19.4246C6.04384 20.8931 7.91476 21.8931 9.95156 22.2982C11.9884 22.7034 14.0996 22.4955 16.0182 21.7007C17.9368 20.906 19.5767 19.5602 20.7304 17.8335C21.8842 16.1068 22.5 14.0767 22.5 12C22.4968 9.2162 21.3896 6.54733 19.4211 4.57889C17.4527 2.61044 14.7838 1.50318 12 1.5V1.5ZM17.779 10.142L20.929 8.787C21.6631 10.7884 21.691 12.9806 21.008 15L17.781 13.841C17.781 13.797 17.794 13.754 17.794 13.709V10.3C17.794 10.243 17.784 10.193 17.779 10.142ZM20.54 7.866L17.394 9.22C17.363 9.183 17.337 9.143 17.302 9.108L14.891 6.7C14.856 6.665 14.816 6.639 14.779 6.608L16.109 3.451C18.0401 4.38307 19.601 5.93832 20.54 7.866V7.866ZM14.185 16.6C14.1222 16.6634 14.0474 16.7137 13.965 16.7481C13.8826 16.7824 13.7943 16.8001 13.705 16.8H10.3C10.2107 16.8001 10.1224 16.7824 10.04 16.7481C9.95758 16.7137 9.88282 16.6634 9.82 16.6L7.4 14.185C7.27266 14.0576 7.20077 13.8851 7.2 13.705V10.3C7.20077 10.1199 7.27266 9.94737 7.4 9.82L9.815 7.4C9.87782 7.33658 9.95258 7.28625 10.035 7.25192C10.1174 7.21759 10.2057 7.19994 10.295 7.2H13.705C13.7943 7.19994 13.8826 7.21759 13.965 7.25192C14.0474 7.28625 14.1222 7.33658 14.185 7.4L16.6 9.815C16.7274 9.94237 16.7992 10.1149 16.8 10.295V13.705C16.7996 13.8852 16.7276 14.0578 16.6 14.185L14.185 16.6ZM15.185 3.065L13.854 6.225C13.803 6.225 13.754 6.21 13.704 6.21H10.3C10.25 6.21 10.2 6.22 10.151 6.225L8.815 3.061C10.8728 2.31304 13.1282 2.31304 15.186 3.061L15.185 3.065ZM7.891 3.451L9.222 6.6C9.184 6.632 9.143 6.658 9.108 6.693L6.7 9.108C6.666 9.142 6.64 9.183 6.609 9.22L3.46 7.866C4.39884 5.93685 5.96011 4.38016 7.892 3.447L7.891 3.451ZM3.071 8.787L6.221 10.142C6.221 10.193 6.206 10.242 6.206 10.295V13.705C6.206 13.751 6.216 13.795 6.22 13.841L3.006 15.041C2.30974 13.0123 2.33269 10.8058 3.071 8.792V8.787ZM3.378 15.965L6.596 14.765C6.63 14.806 6.659 14.851 6.696 14.889L9.109 17.3C9.147 17.338 9.192 17.368 9.233 17.4L8.045 20.626C5.9851 19.676 4.33066 18.0237 3.378 15.965V15.965ZM8.974 21L10.161 17.784C10.206 17.784 10.25 17.797 10.295 17.797H13.705C13.752 17.797 13.797 17.787 13.844 17.783L15.076 20.983C13.1019 21.671 10.9541 21.6773 8.976 21.001L8.974 21ZM16 20.6L14.768 17.4C14.808 17.367 14.851 17.338 14.889 17.3L17.299 14.889C17.338 14.849 17.368 14.804 17.399 14.762L20.633 15.923C19.6922 17.9821 18.0501 19.6397 16 20.6V20.6Z" fill="#1A1A1A"/>
</svg>
