<svg width="24" height="24" viewBox="0 0 24 24" fill="none" xmlns="http://www.w3.org/2000/svg">
<path fill-rule="evenodd" clip-rule="evenodd" d="M11.9083 5C12.7 5 13.35 5.63333 13.3667 6.425H13.3583C18.2833 6.75 21.825 8.63333 21.825 10.95C21.825 12.8083 19.5583 14.4083 15.9167 15.1417H15.85C15.8167 15.1417 15.7833 15.125 15.75 15.1083C15.625 17.1333 13.95 18.75 11.9 18.75C9.85 18.75 8.175 17.1417 8.05 15.1167C8.04167 15.1194 8.03333 15.1231 8.025 15.1269C8.00833 15.1343 7.99167 15.1417 7.975 15.1417H7.90833C4.26667 14.4167 2 12.8083 2 10.95C2 8.63333 5.53333 6.75833 10.45 6.425C10.4667 5.64167 11.1167 5 11.9083 5ZM12.7 6.45833C12.7 6.025 12.35 5.66667 11.9083 5.66667C11.475 5.66667 11.1167 6.025 11.1167 6.45833C11.1167 6.89167 11.475 7.25 11.9083 7.25C12.3417 7.25 12.7 6.89167 12.7 6.45833ZM8.7 14.8833C8.7 16.65 10.1417 18.0917 11.9083 18.0917C13.675 18.0917 15.1167 16.65 15.1167 14.8833C15.1167 13.1167 13.675 11.675 11.9083 11.675C10.1417 11.675 8.7 13.1167 8.7 14.8833ZM15.75 14.5167L15.8 14.4917H15.8083C19.025 13.85 21.1833 12.425 21.1833 10.95C21.1833 9.04167 17.7083 7.35833 13.2417 7.08333C13.0083 7.575 12.5083 7.91667 11.925 7.91667C11.3417 7.91667 10.8417 7.575 10.6083 7.08333C6.14167 7.36667 2.675 9.04167 2.675 10.95C2.675 12.425 4.83333 13.85 8.05 14.4917C8.05417 14.4917 8.05833 14.4937 8.0625 14.4958C8.06667 14.4979 8.07083 14.5 8.075 14.5C8.26667 12.55 9.89167 11.0083 11.9083 11.0083C13.925 11.0083 15.5583 12.5583 15.75 14.5167ZM9.69165 14.875C9.69165 14.2917 9.92498 13.7333 10.3417 13.3167H10.3333C11.1666 12.4833 12.625 12.4833 13.4583 13.3167C13.875 13.7333 14.1083 14.2917 14.1083 14.875C14.1083 15.4583 13.875 16.0167 13.4583 16.4333C13.0416 16.85 12.4833 17.0833 11.9 17.0833C11.3167 17.0833 10.7583 16.85 10.3417 16.4333C9.92498 16.0167 9.69165 15.4583 9.69165 14.875ZM10.3583 14.875C10.3583 15.2917 10.5166 15.675 10.8083 15.9667C11.3916 16.55 12.4083 16.55 12.9917 15.9667C13.2833 15.675 13.4417 15.2917 13.4417 14.875C13.4417 14.4583 13.2833 14.075 12.9917 13.7833C12.7 13.4917 12.3167 13.3333 11.9 13.3333C11.4833 13.3333 11.1 13.4917 10.8083 13.7833C10.5166 14.075 10.3583 14.4583 10.3583 14.875Z" fill="#161618" style="fill:#161618;fill:color(display-p3 0.0863 0.0863 0.0941);fill-opacity:1;"/>
</svg>
