<svg width="24" height="24" viewBox="0 0 24 24" fill="none" xmlns="http://www.w3.org/2000/svg">
<path d="M7.675 9.65833L8.71667 6.86667C8.79167 6.66667 8.76667 6.45 8.64167 6.275C8.525 6.1 8.325 6 8.125 6C7.38333 6 5.88333 6 5.13333 6.01667C4.925 6.01667 4.725 6.125 4.60833 6.3C4.49167 6.475 4.45833 6.7 4.53333 6.9L5.56667 9.675C3.525 10.1417 2 11.975 2 14.1583C2 16.7083 4.075 18.7833 6.625 18.7833C9.175 18.7833 11.25 16.7083 11.25 14.1583C11.25 11.9667 9.71667 10.1333 7.675 9.65833ZM5.14167 6.68333C5.88333 6.675 7.375 6.65833 8.09167 6.63333L7 9.55833C6.875 9.55 6.75 9.54167 6.625 9.54167C6.5 9.54167 6.36667 9.55 6.23333 9.55833L5.14167 6.68333ZM6.625 18.1167C4.44167 18.1167 2.66667 16.3417 2.66667 14.1583C2.66667 11.975 4.44167 10.2 6.625 10.2C8.80833 10.2 10.5833 11.975 10.5833 14.1583C10.5833 16.3417 8.80833 18.1167 6.625 18.1167Z" fill="#161618" style="fill:#161618;fill:color(display-p3 0.0863 0.0863 0.0941);fill-opacity:1;"/>
<path d="M6.62428 11.4668C5.14095 11.4668 3.93262 12.6751 3.93262 14.1585C3.93262 15.6418 5.14095 16.8501 6.62428 16.8501C8.10762 16.8501 9.31595 15.6418 9.31595 14.1585C9.31595 12.6751 8.10762 11.4668 6.62428 11.4668ZM6.62428 16.1918C5.50762 16.1918 4.59928 15.2835 4.59928 14.1668C4.59928 13.0501 5.50762 12.1418 6.62428 12.1418C7.74095 12.1418 8.64928 13.0501 8.64928 14.1668C8.64928 15.2835 7.74095 16.1918 6.62428 16.1918Z" fill="#161618" style="fill:#161618;fill:color(display-p3 0.0863 0.0863 0.0941);fill-opacity:1;"/>
<path d="M18.341 9.65833L19.3827 6.86667C19.4577 6.66667 19.4327 6.45 19.3077 6.275C19.191 6.1 18.991 6 18.791 6C18.0493 6 16.5493 6 15.7993 6.01667C15.591 6.01667 15.391 6.125 15.2743 6.3C15.1577 6.475 15.1243 6.7 15.1993 6.89167L16.2327 9.66667C14.191 10.15 12.666 11.9833 12.666 14.1667C12.666 16.7167 14.741 18.7917 17.291 18.7917C19.841 18.7917 21.916 16.7167 21.916 14.1667C21.916 11.975 20.3827 10.1417 18.341 9.66667V9.65833ZM15.8077 6.68333C16.5493 6.675 18.0493 6.65833 18.7577 6.63333L17.666 9.55833C17.541 9.55 17.416 9.54167 17.291 9.54167C17.166 9.54167 17.0327 9.55 16.8993 9.55833L15.8077 6.68333ZM17.291 18.1167C15.1077 18.1167 13.3327 16.3417 13.3327 14.1583C13.3327 11.975 15.1077 10.2 17.291 10.2C19.4743 10.2 21.2493 11.975 21.2493 14.1583C21.2493 16.3417 19.4743 18.1167 17.291 18.1167Z" fill="#161618" style="fill:#161618;fill:color(display-p3 0.0863 0.0863 0.0941);fill-opacity:1;"/>
<path d="M17.2913 11.4668C15.8079 11.4668 14.5996 12.6751 14.5996 14.1585C14.5996 15.6418 15.8079 16.8501 17.2913 16.8501C18.7746 16.8501 19.9829 15.6418 19.9829 14.1585C19.9829 12.6751 18.7746 11.4668 17.2913 11.4668ZM17.2913 16.1918C16.1746 16.1918 15.2663 15.2835 15.2663 14.1668C15.2663 13.0501 16.1746 12.1418 17.2913 12.1418C18.4079 12.1418 19.3163 13.0501 19.3163 14.1668C19.3163 15.2835 18.4079 16.1918 17.2913 16.1918Z" fill="#161618" style="fill:#161618;fill:color(display-p3 0.0863 0.0863 0.0941);fill-opacity:1;"/>
</svg>
