<svg width="24" height="24" viewBox="0 0 24 24" fill="none" xmlns="http://www.w3.org/2000/svg">
<path d="M10.0205 16.1971C10.0205 17.4138 11.0122 18.4054 12.2288 18.4054C13.4455 18.4054 14.4372 17.4138 14.4372 16.1971C14.4372 14.9804 13.4455 13.9888 12.2288 13.9888C11.0122 13.9888 10.0205 14.9804 10.0205 16.1971ZM13.7705 16.1971C13.7705 17.0471 13.0788 17.7388 12.2288 17.7388C11.3788 17.7388 10.6872 17.0471 10.6872 16.1971C10.6872 15.3471 11.3788 14.6554 12.2288 14.6554C13.0788 14.6554 13.7705 15.3471 13.7705 16.1971Z" fill="#161618" style="fill:#161618;fill:color(display-p3 0.0863 0.0863 0.0941);fill-opacity:1;"/>
<path d="M13.795 10.8221C15.4034 9.63039 16.445 8.48039 17.1784 7.10539C17.7784 5.98872 18.2034 4.73872 18.4367 3.38872C18.47 3.20539 18.345 3.03872 18.1617 3.00539C17.9867 2.97205 17.8117 3.09705 17.7784 3.28039C17.5617 4.56372 17.1617 5.74705 16.5867 6.79705C16.0034 7.88872 15.2367 8.79705 14.1034 9.73872C14.1284 9.58872 14.1117 9.43039 14.02 9.29705C13.9117 9.13872 13.7284 9.03872 13.5284 9.03872C12.8784 9.03872 11.57 9.03872 10.9117 9.05539C10.7117 9.05539 10.5284 9.15539 10.42 9.32205C10.3367 9.44705 10.32 9.59705 10.3367 9.74705C9.20336 8.80539 8.4367 7.89705 7.85336 6.81372C7.2867 5.76372 6.8867 4.58039 6.6617 3.29705C6.62836 3.11372 6.45336 2.99705 6.27836 3.02205C6.09503 3.05539 5.97836 3.23039 6.00336 3.40539C6.2367 4.75539 6.6617 6.00539 7.2617 7.12205C7.99503 8.49705 9.0367 9.64705 10.645 10.8387C10.6617 10.8554 10.6867 10.8471 10.7117 10.8637L11.2367 12.2637C9.4617 12.7054 8.12836 14.3054 8.12836 16.2137C8.12836 18.4637 9.96169 20.2971 12.2117 20.2971C14.4617 20.2971 16.295 18.4637 16.295 16.2137C16.295 14.2971 14.9617 12.6971 13.1867 12.2637L13.7034 10.8637C13.7034 10.8637 13.7534 10.8637 13.7784 10.8387L13.795 10.8221ZM15.645 16.1971C15.645 18.0804 14.1117 19.6137 12.2284 19.6137C10.345 19.6137 8.8117 18.0804 8.8117 16.1971C8.8117 14.3137 10.345 12.7804 12.2284 12.7804C14.1117 12.7804 15.645 14.3137 15.645 16.1971ZM12.2284 12.1137C12.12 12.1137 12.0284 12.1387 11.92 12.1471L11.0117 9.70539C11.6534 9.70539 12.795 9.68872 13.4367 9.68872L12.52 12.1471C12.42 12.1471 12.3284 12.1137 12.22 12.1137H12.2284Z" fill="#161618" style="fill:#161618;fill:color(display-p3 0.0863 0.0863 0.0941);fill-opacity:1;"/>
</svg>
