<svg width="24" height="24" viewBox="0 0 24 24" fill="none" xmlns="http://www.w3.org/2000/svg">
<path d="M11.9167 4C6.45 4 2 6.70833 2 10.0417C2 12.0917 3.66667 13.975 6.51667 15.1083L6.81667 15.1667C7.36667 17.5333 9.48333 19.3 12.0083 19.3C14.5333 19.3 16.6833 17.5083 17.2167 15.1167L17.55 15.025C20.2333 13.9083 21.8417 12.0417 21.8417 10.0417C21.8417 6.70833 17.3917 4 11.925 4H11.9167ZM12 8.63333C9.98333 8.63333 8.21667 9.75833 7.31667 11.4167L6.725 11.2C5.275 10.4917 4.44167 9.51667 4.44167 8.53333C4.44167 6.50833 7.875 4.8 11.9333 4.8C15.9917 4.8 19.425 6.50833 19.425 8.53333C19.425 9.5 18.6333 10.45 17.2583 11.1417L16.6833 11.425C15.7833 9.75833 14.0167 8.63333 11.9917 8.63333H12ZM2.66667 10.0417C2.66667 8.925 3.25833 7.88333 4.26667 7.025C3.95833 7.49167 3.78333 8 3.78333 8.53333C3.78333 9.78333 4.75 10.975 6.46667 11.8083L7.04167 12.025C6.80833 12.625 6.675 13.2833 6.675 13.9667C6.675 14.1333 6.68333 14.3 6.7 14.4667C4.175 13.4583 2.66667 11.8 2.66667 10.0417ZM12 18.6333C9.425 18.6333 7.33333 16.5417 7.33333 13.9667C7.33333 11.3917 9.425 9.3 12 9.3C14.575 9.3 16.6667 11.3917 16.6667 13.9667C16.6667 16.5417 14.575 18.6333 12 18.6333ZM17.325 14.3917H17.3083C17.3167 14.25 17.3333 14.1083 17.3333 13.9667C17.3333 13.2833 17.2 12.6333 16.9667 12.0333L17.5667 11.7333C19.2 10.9083 20.1 9.76667 20.1 8.525C20.1 8.03333 19.9583 7.56667 19.6917 7.13333C20.6167 7.96667 21.1667 8.96667 21.1667 10.0333C21.1667 11.7583 19.7167 13.3917 17.3333 14.3833L17.325 14.3917Z" fill="#161618" style="fill:#161618;fill:color(display-p3 0.0863 0.0863 0.0941);fill-opacity:1;"/>
<path d="M12 10.7168C10.2083 10.7168 8.75 12.1751 8.75 13.9668C8.75 15.7585 10.2083 17.2168 12 17.2168C13.7917 17.2168 15.25 15.7585 15.25 13.9668C15.25 12.1751 13.7917 10.7168 12 10.7168ZM12 16.5501C10.575 16.5501 9.41667 15.3918 9.41667 13.9668C9.41667 12.5418 10.575 11.3835 12 11.3835C13.425 11.3835 14.5833 12.5418 14.5833 13.9668C14.5833 15.3918 13.425 16.5501 12 16.5501Z" fill="#161618" style="fill:#161618;fill:color(display-p3 0.0863 0.0863 0.0941);fill-opacity:1;"/>
</svg>
